<svg width="25" height="25" viewBox="0 0 25 25" fill="none" xmlns="http://www.w3.org/2000/svg">
<g clip-path="url(#clip0_120_49)">
<path d="M17.685 2.44897C16.6405 2.45875 15.6129 2.70502 14.6845 3.16807C13.7561 3.63112 12.9527 4.29806 12.3387 5.11547C11.7247 4.29806 10.9214 3.63112 9.99296 3.16807C9.06456 2.70502 8.03694 2.45875 6.99244 2.44897C5.10012 2.52207 3.31472 3.31697 2.02661 4.65985C0.738507 6.00274 0.0525135 7.78435 0.11863 9.61512C0.11863 14.099 4.87836 18.8991 8.87637 22.1369C9.84719 22.9265 11.0749 23.3595 12.3433 23.3595C13.6117 23.3595 14.8394 22.9265 15.8103 22.1369C19.8042 18.8991 24.568 14.099 24.568 9.61512C24.6341 7.78288 23.9468 5.99997 22.6568 4.65683C21.3667 3.31369 19.579 2.51979 17.685 2.44897ZM13.8428 19.8723C13.4217 20.2153 12.8888 20.4034 12.3382 20.4034C11.7877 20.4034 11.2548 20.2153 10.8336 19.8723C5.96595 15.9243 3.17366 12.1861 3.17366 9.61512C3.10873 8.56824 3.47333 7.53884 4.18831 6.75042C4.90329 5.962 5.91092 5.47821 6.99244 5.40409C8.07395 5.47821 9.08158 5.962 9.79656 6.75042C10.5115 7.53884 10.8761 8.56824 10.8112 9.61512C10.8112 10.007 10.9722 10.3828 11.2586 10.6599C11.5451 10.937 11.9336 11.0927 12.3387 11.0927C12.7439 11.0927 13.1324 10.937 13.4188 10.6599C13.7053 10.3828 13.8662 10.007 13.8662 9.61512C13.8013 8.56824 14.1659 7.53884 14.8809 6.75042C15.5959 5.962 16.6035 5.47821 17.685 5.40409C18.7665 5.47821 19.7742 5.962 20.4892 6.75042C21.2041 7.53884 21.5687 8.56824 21.5038 9.61512C21.5038 12.1861 18.7115 15.9243 13.8428 19.8723Z" fill="white"/>
</g>
<defs>
<clipPath id="clip0_120_49">
<rect width="24.4402" height="23.6409" fill="white" transform="translate(0.119141 0.625977)"/>
</clipPath>
</defs>
</svg>
